<?xml version="1.0" encoding="UTF-8"?>
<svg width="64" height="64" viewBox="0 0 64 64" xmlns="http://www.w3.org/2000/svg">
  <!-- Mouse body -->
  <ellipse cx="32" cy="40" rx="18" ry="22" fill="#2C3E50" stroke="#34495E" stroke-width="2"/>
  
  <!-- Mouse buttons -->
  <path d="M 20 25 Q 20 18 32 18 Q 44 18 44 25 L 44 35 Q 44 42 32 42 Q 20 42 20 35 Z" fill="#ECF0F1" stroke="#BDC3C7" stroke-width="1.5"/>
  
  <!-- Left button -->
  <path d="M 20 25 Q 20 18 32 18 L 32 35 L 20 35 Z" fill="#3498DB" stroke="#2980B9" stroke-width="1"/>
  
  <!-- Right button -->
  <path d="M 32 18 Q 44 18 44 25 L 44 35 L 32 35 Z" fill="#E74C3C" stroke="#C0392B" stroke-width="1"/>
  
  <!-- Scroll wheel -->
  <rect x="30" y="22" width="4" height="8" rx="2" fill="#95A5A6" stroke="#7F8C8D" stroke-width="0.5"/>
  
  <!-- Cable -->
  <path d="M 32 62 Q 32 58 28 56 Q 24 54 26 50 Q 28 46 32 48" fill="none" stroke="#34495E" stroke-width="3" stroke-linecap="round"/>
  
  <!-- Crosshair overlay (subtle) -->
  <line x1="32" y1="8" x2="32" y2="16" stroke="#E67E22" stroke-width="2" opacity="0.7"/>
  <line x1="24" y1="12" x2="40" y2="12" stroke="#E67E22" stroke-width="2" opacity="0.7"/>
</svg>
